<svg width="112" height="39" viewBox="0 0 112 39" fill="none" xmlns="http://www.w3.org/2000/svg">
<path d="M25.0488 28.3987L21.9839 35.6469C21.9177 35.8277 21.8136 35.9704 21.6718 36.075C21.5393 36.1701 21.3927 36.2177 21.2319 36.2177C20.9765 36.2177 20.7873 36.1463 20.6643 36.0037C20.5413 35.861 20.4799 35.685 20.4799 35.4757C20.4799 35.3901 20.494 35.2998 20.5224 35.2046L24.0556 26.6722C24.1312 26.482 24.2447 26.3345 24.3961 26.2299C24.5569 26.1252 24.7272 26.0824 24.9069 26.1015C25.0772 26.1015 25.2333 26.1538 25.3752 26.2584C25.5265 26.3535 25.6353 26.4915 25.7015 26.6722L29.1921 35.0334C29.2394 35.1571 29.263 35.2712 29.263 35.3759C29.263 35.6327 29.1779 35.8372 29.0076 35.9894C28.8468 36.1416 28.6671 36.2177 28.4684 36.2177C28.2981 36.2177 28.1421 36.1654 28.0002 36.0607C27.8677 35.9561 27.7637 35.8134 27.688 35.6327L24.6373 28.4843L25.0488 28.3987ZM22.4238 33.9062L23.2042 32.2654H27.0353L27.3049 33.9062H22.4238Z" fill="#6E6E6E"/>
<path d="M33.6996 28.3701C34.2388 28.3701 34.707 28.4272 35.1043 28.5413C35.5111 28.6555 35.8233 28.8172 36.0408 29.0265C36.2679 29.2262 36.3814 29.4688 36.3814 29.7541C36.3814 29.9444 36.3246 30.1251 36.2111 30.2963C36.0976 30.458 35.9321 30.5389 35.7145 30.5389C35.5631 30.5389 35.4354 30.5199 35.3314 30.4818C35.2368 30.4343 35.1516 30.3772 35.076 30.3106C35.0003 30.244 34.9104 30.1822 34.8064 30.1251C34.7118 30.068 34.5652 30.0252 34.3665 29.9967C34.1773 29.9587 34.0354 29.9396 33.9408 29.9396C33.4584 29.9396 33.0469 30.0443 32.7064 30.2535C32.3753 30.4628 32.1199 30.7482 31.9401 31.1096C31.7604 31.4616 31.6705 31.8706 31.6705 32.3367C31.6705 32.7933 31.7604 33.2023 31.9401 33.5638C32.1293 33.9157 32.3847 34.1963 32.7064 34.4056C33.0374 34.6149 33.4158 34.7195 33.8415 34.7195C34.078 34.7195 34.2814 34.7052 34.4516 34.6767C34.6219 34.6482 34.7638 34.6054 34.8773 34.5483C35.0098 34.4722 35.128 34.3913 35.232 34.3057C35.3361 34.2201 35.4922 34.1773 35.7003 34.1773C35.9462 34.1773 36.1354 34.2582 36.2679 34.4199C36.4003 34.5721 36.4665 34.7623 36.4665 34.9906C36.4665 35.2284 36.3341 35.4472 36.0692 35.6469C35.8043 35.8372 35.4543 35.9941 35.0192 36.1178C34.5935 36.232 34.13 36.289 33.6287 36.289C32.8814 36.289 32.2334 36.1178 31.6847 35.7754C31.1361 35.4234 30.7104 34.9478 30.4077 34.3485C30.1144 33.7493 29.9678 33.0787 29.9678 32.3367C29.9678 31.5567 30.1239 30.8718 30.4361 30.2821C30.7577 29.6828 31.1976 29.2167 31.7557 28.8838C32.3232 28.5413 32.9712 28.3701 33.6996 28.3701Z" fill="#6E6E6E"/>
<path d="M43.9092 28.3701C44.1552 28.3701 44.3586 28.451 44.5194 28.6127C44.6802 28.7744 44.7606 28.9837 44.7606 29.2405V35.276C44.7606 35.5233 44.6802 35.7326 44.5194 35.9038C44.3586 36.0655 44.1552 36.1463 43.9092 36.1463C43.6633 36.1463 43.4599 36.0655 43.2991 35.9038C43.1383 35.7326 43.0579 35.5233 43.0579 35.276V34.5768L43.37 34.7052C43.37 34.8289 43.3038 34.9811 43.1714 35.1618C43.039 35.333 42.8592 35.5043 42.6322 35.6755C42.4052 35.8467 42.1356 35.9941 41.8234 36.1178C41.5207 36.232 41.1896 36.289 40.8302 36.289C40.1775 36.289 39.5862 36.1226 39.0565 35.7896C38.5268 35.4472 38.1058 34.9811 37.7937 34.3913C37.491 33.7921 37.3396 33.1072 37.3396 32.3367C37.3396 31.5567 37.491 30.8718 37.7937 30.2821C38.1058 29.6828 38.522 29.2167 39.0423 28.8838C39.5626 28.5413 40.1396 28.3701 40.7734 28.3701C41.1802 28.3701 41.5538 28.432 41.8944 28.5556C42.2349 28.6793 42.5281 28.8362 42.7741 29.0265C43.0295 29.2167 43.2234 29.4117 43.3559 29.6115C43.4977 29.8017 43.5687 29.9634 43.5687 30.0966L43.0579 30.2821V29.2405C43.0579 28.9932 43.1383 28.7887 43.2991 28.6269C43.4599 28.4557 43.6633 28.3701 43.9092 28.3701ZM41.043 34.7195C41.4592 34.7195 41.8234 34.6149 42.1356 34.4056C42.4477 34.1963 42.689 33.911 42.8592 33.5495C43.039 33.188 43.1288 32.7838 43.1288 32.3367C43.1288 31.8801 43.039 31.4711 42.8592 31.1096C42.689 30.7482 42.4477 30.4628 42.1356 30.2535C41.8234 30.0443 41.4592 29.9396 41.043 29.9396C40.6362 29.9396 40.2768 30.0443 39.9646 30.2535C39.6525 30.4628 39.4065 30.7482 39.2268 31.1096C39.0565 31.4711 38.9714 31.8801 38.9714 32.3367C38.9714 32.7838 39.0565 33.188 39.2268 33.5495C39.4065 33.911 39.6525 34.1963 39.9646 34.4056C40.2768 34.6149 40.6362 34.7195 41.043 34.7195Z" fill="#6E6E6E"/>
<path d="M52.8191 25.5878C53.0651 25.5878 53.2684 25.6687 53.4292 25.8304C53.59 25.9921 53.6705 26.2013 53.6705 26.4582V35.276C53.6705 35.5233 53.59 35.7326 53.4292 35.9038C53.2684 36.0655 53.0651 36.1463 52.8191 36.1463C52.5732 36.1463 52.3698 36.0655 52.209 35.9038C52.0482 35.7326 51.9677 35.5233 51.9677 35.276V34.5768L52.2799 34.7052C52.2799 34.8289 52.2137 34.9811 52.0813 35.1618C51.9488 35.333 51.7691 35.5043 51.5421 35.6755C51.315 35.8467 51.0454 35.9941 50.7333 36.1178C50.4306 36.232 50.0995 36.289 49.74 36.289C49.0873 36.289 48.4961 36.1226 47.9664 35.7896C47.4366 35.4472 47.0157 34.9811 46.7035 34.3913C46.4008 33.7921 46.2495 33.1072 46.2495 32.3367C46.2495 31.5567 46.4008 30.8718 46.7035 30.2821C47.0157 29.6828 47.4319 29.2167 47.9522 28.8838C48.4725 28.5413 49.0495 28.3701 49.6833 28.3701C50.09 28.3701 50.4637 28.432 50.8042 28.5556C51.1448 28.6793 51.438 28.8362 51.684 29.0265C51.9394 29.2167 52.1333 29.4117 52.2657 29.6115C52.4076 29.8017 52.4786 29.9634 52.4786 30.0966L51.9677 30.2821V26.4582C51.9677 26.2109 52.0482 26.0063 52.209 25.8446C52.3698 25.6734 52.5732 25.5878 52.8191 25.5878ZM49.9529 34.7195C50.3691 34.7195 50.7333 34.6149 51.0454 34.4056C51.3576 34.1963 51.5988 33.911 51.7691 33.5495C51.9488 33.188 52.0387 32.7838 52.0387 32.3367C52.0387 31.8801 51.9488 31.4711 51.7691 31.1096C51.5988 30.7482 51.3576 30.4628 51.0454 30.2535C50.7333 30.0443 50.3691 29.9396 49.9529 29.9396C49.5461 29.9396 49.1866 30.0443 48.8745 30.2535C48.5623 30.4628 48.3164 30.7482 48.1366 31.1096C47.9664 31.4711 47.8812 31.8801 47.8812 32.3367C47.8812 32.7838 47.9664 33.188 48.1366 33.5495C48.3164 33.911 48.5623 34.1963 48.8745 34.4056C49.1866 34.6149 49.5461 34.7195 49.9529 34.7195Z" fill="#6E6E6E"/>
<path d="M59.0898 36.289C58.2857 36.289 57.5857 36.1226 56.9897 35.7896C56.4033 35.4472 55.9492 34.9859 55.6276 34.4056C55.3154 33.8254 55.1593 33.169 55.1593 32.4366C55.1593 31.5805 55.3296 30.8528 55.6701 30.2535C56.0201 29.6448 56.4742 29.1787 57.0323 28.8552C57.5904 28.5318 58.1817 28.3701 58.806 28.3701C59.2884 28.3701 59.7425 28.47 60.1681 28.6698C60.6033 28.8695 60.9864 29.1454 61.3175 29.4973C61.6486 29.8398 61.9087 30.2393 62.0979 30.6959C62.2965 31.1524 62.3959 31.6376 62.3959 32.1512C62.3864 32.3795 62.2965 32.565 62.1263 32.7077C61.956 32.8504 61.7573 32.9217 61.5303 32.9217H56.11L55.6843 31.4949H60.8918L60.5796 31.7802V31.395C60.5607 31.1191 60.4614 30.8718 60.2817 30.653C60.1114 30.4343 59.8938 30.263 59.629 30.1394C59.3736 30.0062 59.0992 29.9396 58.806 29.9396C58.5222 29.9396 58.2573 29.9777 58.0114 30.0538C57.7654 30.1299 57.5526 30.2583 57.3729 30.439C57.1931 30.6198 57.0512 30.8623 56.9472 31.1667C56.8431 31.4711 56.7911 31.8563 56.7911 32.3224C56.7911 32.8361 56.8952 33.2737 57.1033 33.6351C57.3208 33.9871 57.5952 34.2582 57.9262 34.4484C58.2668 34.6291 58.6262 34.7195 59.0046 34.7195C59.3546 34.7195 59.6337 34.691 59.8418 34.6339C60.0499 34.5768 60.2154 34.5102 60.3384 34.4341C60.4709 34.3485 60.5891 34.2772 60.6931 34.2201C60.8634 34.1345 61.0242 34.0917 61.1756 34.0917C61.3837 34.0917 61.554 34.163 61.6864 34.3057C61.8283 34.4484 61.8992 34.6149 61.8992 34.8051C61.8992 35.062 61.7668 35.295 61.5019 35.5043C61.256 35.7135 60.9107 35.899 60.4661 36.0607C60.0215 36.2129 59.5627 36.289 59.0898 36.289Z" fill="#6E6E6E"/>
<path d="M67.8707 28.3701C68.6275 28.3701 69.1856 28.5556 69.545 28.9266C69.9045 29.288 70.141 29.7589 70.2545 30.3391L70.0133 30.2107L70.1268 29.9824C70.2403 29.7637 70.4153 29.5306 70.6518 29.2833C70.8883 29.0265 71.1721 28.8124 71.5032 28.6412C71.8437 28.4605 72.2221 28.3701 72.6383 28.3701C73.3194 28.3701 73.8349 28.5176 74.1849 28.8124C74.5444 29.1073 74.7904 29.5021 74.9228 29.9967C75.0552 30.4818 75.1214 31.024 75.1214 31.6233V35.276C75.1214 35.5233 75.041 35.7326 74.8802 35.9038C74.7194 36.0655 74.516 36.1463 74.2701 36.1463C74.0241 36.1463 73.8207 36.0655 73.6599 35.9038C73.4991 35.7326 73.4187 35.5233 73.4187 35.276V31.6233C73.4187 31.3094 73.3809 31.0288 73.3052 30.7815C73.2295 30.5246 73.0924 30.3201 72.8937 30.1679C72.6951 30.0157 72.4113 29.9396 72.0424 29.9396C71.6829 29.9396 71.3755 30.0157 71.1201 30.1679C70.8646 30.3201 70.6707 30.5246 70.5383 30.7815C70.4153 31.0288 70.3538 31.3094 70.3538 31.6233V35.276C70.3538 35.5233 70.2734 35.7326 70.1126 35.9038C69.9518 36.0655 69.7484 36.1463 69.5025 36.1463C69.2565 36.1463 69.0531 36.0655 68.8923 35.9038C68.7315 35.7326 68.6511 35.5233 68.6511 35.276V31.6233C68.6511 31.3094 68.6133 31.0288 68.5376 30.7815C68.4619 30.5246 68.3248 30.3201 68.1261 30.1679C67.9275 30.0157 67.6437 29.9396 67.2748 29.9396C66.9153 29.9396 66.6079 30.0157 66.3525 30.1679C66.097 30.3201 65.9031 30.5246 65.7707 30.7815C65.6477 31.0288 65.5862 31.3094 65.5862 31.6233V35.276C65.5862 35.5233 65.5058 35.7326 65.345 35.9038C65.1842 36.0655 64.9808 36.1463 64.7349 36.1463C64.4889 36.1463 64.2856 36.0655 64.1247 35.9038C63.9639 35.7326 63.8835 35.5233 63.8835 35.276V29.3832C63.8835 29.1359 63.9639 28.9313 64.1247 28.7696C64.2856 28.5984 64.4889 28.5128 64.7349 28.5128C64.9808 28.5128 65.1842 28.5984 65.345 28.7696C65.5058 28.9313 65.5862 29.1359 65.5862 29.3832V29.9967L65.3734 29.9539C65.4585 29.7922 65.5768 29.621 65.7281 29.4402C65.8795 29.25 66.0639 29.074 66.2815 28.9123C66.4991 28.7506 66.7403 28.6222 67.0052 28.5271C67.27 28.4224 67.5585 28.3701 67.8707 28.3701Z" fill="#6E6E6E"/>
<path d="M82.5281 28.5128C82.7741 28.5128 82.9774 28.5984 83.1383 28.7696C83.2991 28.9313 83.3795 29.1359 83.3795 29.3832V35.4472C83.3795 36.3223 83.2139 37.0167 82.8829 37.5304C82.5612 38.0535 82.1261 38.4293 81.5774 38.6576C81.0288 38.8859 80.4139 39 79.7328 39C79.4301 39 79.1085 38.9762 78.768 38.9287C78.4274 38.8811 78.1484 38.8098 77.9308 38.7146C77.647 38.591 77.4484 38.434 77.3348 38.2438C77.2308 38.063 77.2119 37.868 77.2781 37.6588C77.3632 37.3829 77.5004 37.1927 77.6896 37.0881C77.8788 36.9929 78.0774 36.9834 78.2855 37.0595C78.4369 37.1071 78.6355 37.1784 78.8815 37.2735C79.1274 37.3782 79.4112 37.4305 79.7328 37.4305C80.168 37.4305 80.5274 37.3687 80.8112 37.245C81.1045 37.1309 81.322 36.9311 81.4639 36.6457C81.6153 36.3699 81.6909 35.9894 81.6909 35.5043V34.5483L81.9889 34.8907C81.8281 35.2046 81.6247 35.4662 81.3788 35.6755C81.1423 35.8752 80.8585 36.0274 80.5274 36.1321C80.1964 36.2367 79.818 36.289 79.3923 36.289C78.8909 36.289 78.4511 36.1749 78.0727 35.9466C77.7038 35.7088 77.4153 35.3854 77.2071 34.9763C76.999 34.5578 76.895 34.0822 76.895 33.5495V29.3832C76.895 29.1359 76.9754 28.9313 77.1362 28.7696C77.297 28.5984 77.5004 28.5128 77.7463 28.5128C77.9923 28.5128 78.1957 28.5984 78.3565 28.7696C78.5173 28.9313 78.5977 29.1359 78.5977 29.3832V33.0359C78.5977 33.6541 78.7301 34.0917 78.995 34.3485C79.2693 34.5959 79.6477 34.7195 80.1301 34.7195C80.4612 34.7195 80.7403 34.6577 80.9673 34.534C81.1943 34.4009 81.3693 34.2106 81.4923 33.9633C81.6153 33.7065 81.6768 33.3973 81.6768 33.0359V29.3832C81.6768 29.1359 81.7572 28.9313 81.918 28.7696C82.0788 28.5984 82.2822 28.5128 82.5281 28.5128Z" fill="#6E6E6E"/>
<path fill-rule="evenodd" clip-rule="evenodd" d="M2.03305 1.05967C1.05753 1.64015 0.155569 2.15167 0.0288118 2.19638C-0.283825 2.30695 2.02311 5.40151 3.30228 6.5872C3.87009 7.11347 4.77702 7.8383 5.31739 8.19809L6.30024 8.85206L8.12781 7.99216C9.13289 7.51916 10.514 7.00336 11.197 6.84594C11.8799 6.68875 12.4385 6.48828 12.4385 6.40076C12.4385 6.31301 11.9861 6.10684 11.4334 5.94228C9.25704 5.29473 6.42581 3.17613 5.08894 1.19474C4.64387 0.535071 4.17326 -0.00260635 4.04319 9.50453e-06C3.91313 0.00238755 3.00856 0.479424 2.03305 1.05967ZM58.8812 2.2563C56.3472 3.19587 54.5336 5.99293 54.3461 9.24991C54.1193 13.1915 55.5205 16.0414 58.2867 17.2644C59.5777 17.8351 62.6475 17.7933 63.9929 17.1866C65.7531 16.3929 65.9664 15.8167 64.9769 14.5273L64.5498 13.9706L63.6651 14.5744C61.6729 15.9339 59.2137 15.4816 57.9206 13.5176C57.3381 12.6332 57.2423 12.2336 57.1695 10.3845C57.1087 8.83755 57.1896 7.99263 57.4691 7.25662C57.8943 6.13704 59.0744 4.79962 59.9234 4.47502C60.7875 4.14471 62.858 4.22937 63.6143 4.62603C63.9912 4.82364 64.324 4.95681 64.3538 4.92186C64.3833 4.8869 64.6342 4.4063 64.9112 3.85435L65.4144 2.85034L64.6447 2.44345C63.5812 1.88152 60.1892 1.77142 58.8812 2.2563ZM20.4791 17.3429H23.0805V11.7416L24.8622 11.7143C26.3149 11.6922 26.8936 11.5616 27.9956 11.0073C29.7589 10.1207 30.4116 8.93719 30.4116 6.62644C30.4116 4.63934 29.841 3.6779 28.1647 2.84106C27.1171 2.31813 26.6122 2.24061 23.7308 2.16023L20.4791 2.06939V17.3429ZM26.9286 4.84433C27.6199 5.29997 27.8892 5.91945 27.8589 6.98576C27.8135 8.5919 26.5174 9.49532 24.2582 9.49532H23.0805V4.19964L24.6912 4.31569C25.6478 4.38442 26.5564 4.59916 26.9286 4.84433ZM69.4321 6.2305C68.8468 6.39125 68.3899 6.60385 68.4166 6.70302C68.4436 6.80218 68.5363 7.26352 68.6231 7.72795C68.7309 8.30606 68.8825 8.5334 69.1034 8.44803C69.281 8.37954 69.9375 8.25517 70.562 8.17194C72.3208 7.93746 73.7683 8.69059 73.7017 9.80542C73.6953 9.91053 72.9317 10.0368 72.0046 10.0858C69.6594 10.2099 68.3161 10.9164 67.5728 12.4163C66.2357 15.1154 67.924 17.5745 71.1178 17.5793C72.0335 17.5807 73.555 17.0397 73.8121 16.6214C73.9081 16.4651 74.1817 16.6005 74.5265 16.9745C75.5938 18.1324 77.6941 17.584 76.925 16.3481C76.6897 15.97 76.5393 14.761 76.4452 12.4936C76.2822 8.56622 75.844 7.33819 74.33 6.56651C73.2221 6.00173 70.8558 5.83955 69.4321 6.2305ZM83.6214 6.19744C83.1661 6.33323 82.6258 6.59577 82.4203 6.78078C81.9109 7.23998 81.7295 7.20336 81.7295 6.64166C81.7295 6.22955 81.5717 6.16605 80.547 6.16605H79.3646V17.3429H81.7295L81.7309 14.192C81.7316 12.4588 81.8378 10.6587 81.9669 10.1911C82.4023 8.61544 83.7399 7.87016 85.2066 8.38596C85.6531 8.54291 85.7994 8.42758 86.2308 7.57695C86.5075 7.03142 86.6456 6.49636 86.5375 6.38769C86.2015 6.05024 84.4891 5.93847 83.6214 6.19744ZM89.8098 6.42526C87.3678 7.67231 86.7501 10.8342 88.5526 12.8626L89.2037 13.5953L88.5408 14.2619C87.7169 15.0906 87.6873 15.9836 88.4587 16.7591C89.0041 17.3077 89.1949 17.3429 91.6222 17.3429C94.3359 17.3429 94.8706 17.5365 94.6947 18.4551C94.4899 19.5243 91.9027 19.822 90.0785 18.9861C89.0022 18.4934 88.9887 18.4929 88.3767 18.9507C88.0376 19.2044 87.7256 19.6444 87.6838 19.9283C87.6209 20.353 87.8524 20.5587 88.9845 21.0852C91.6748 22.3361 95.3755 21.7615 96.7342 19.8819C97.3062 19.0903 97.3814 17.4815 96.8895 16.5574C96.3154 15.4783 95.1729 15.1192 92.8045 15.2735C91.425 15.3634 90.6711 15.322 90.5658 15.1508C90.3083 14.7318 91.2257 14.2217 91.9491 14.3815C93.0452 14.6236 95.1095 13.8757 95.778 12.9941C96.6367 11.862 96.895 10.4292 96.509 8.93577C96.2695 8.00833 96.26 7.67017 96.4695 7.54009C97.4607 6.92608 97.4581 6.93178 96.9785 6.39863C96.6105 5.99008 96.3546 5.91826 95.687 6.03716C94.6689 6.21837 94.3225 6.21884 92.3714 6.04168C91.079 5.92444 90.6711 5.98556 89.8098 6.42526ZM102.003 6.24381C99.7097 6.96127 98.4307 8.97548 98.4369 11.8605C98.4426 14.5989 99.595 16.4307 101.805 17.2147C104.557 18.1909 107.369 17.058 108.51 14.5142C109.108 13.1787 109.146 10.4867 108.585 9.13481C107.538 6.61099 104.748 5.38534 102.003 6.24381ZM33.2495 6.38483C32.7777 6.52157 32.6684 6.69374 32.7086 7.23713C32.7956 8.40927 32.9274 8.56503 33.611 8.30368C33.9495 8.17431 34.7431 8.06849 35.375 8.06849C36.2661 8.06849 36.6873 8.20666 37.2515 8.68417C38.4808 9.72433 38.2472 10.0832 36.3096 10.1307C33.2239 10.2066 31.3576 11.6917 31.3576 14.0716C31.3576 16.2832 32.5866 17.4171 35.0134 17.4447C36.1199 17.457 36.6435 17.335 37.3355 16.9027L38.2289 16.3446L38.7126 16.9626C39.2508 17.6508 40.2159 17.7823 40.9214 17.2637C41.3376 16.9576 41.3376 16.9236 40.9256 16.2913C40.587 15.7715 40.4685 14.9394 40.3526 12.2684C40.1771 8.22425 39.8503 7.30109 38.3519 6.61669C37.3528 6.16034 34.4747 6.02955 33.2495 6.38483ZM42.8199 7.89014C43.1294 8.70771 43.9803 10.8746 44.7111 12.7057C46.9173 18.2351 46.9076 18.9117 44.6115 19.5033C43.4184 19.8108 43.4184 19.8108 43.4184 20.8006V21.7901L44.6118 21.6005C45.8353 21.406 47.0734 20.777 47.7119 20.0258C48.0184 19.665 52.4818 8.13912 52.8231 6.82715C52.9286 6.42122 52.8179 6.38412 51.6976 6.44975L50.4551 6.52276L49.1902 10.1821C48.4944 12.1949 47.8751 13.8919 47.814 13.9532C47.6823 14.0857 47.417 13.4593 45.899 9.43587L44.7551 6.40386H42.2573L42.8199 7.89014ZM11.8069 7.46661C9.47414 8.07301 6.81909 9.30127 5.10786 10.5659C3.30441 11.8991 -0.154466 15.7149 0.16834 16.0159C0.218475 16.0628 1.09821 16.6109 2.12339 17.2344L3.98715 18.3678L4.843 17.3269C6.73183 15.0295 8.57383 13.5872 10.7424 12.7081C11.9033 12.2372 12.798 12.0063 15.4537 11.4917C15.961 11.3935 15.9858 11.2831 15.9858 9.13409V6.87947L14.9808 6.89112C14.4279 6.89754 12.9997 7.15651 11.8069 7.46661ZM93.0639 8.4164C93.8389 8.81924 94.0269 9.20496 94.0269 10.3911C94.0269 12.7437 90.8962 13.0881 90.2809 10.8032C89.9827 9.69674 90.2773 8.95027 91.1959 8.48512C92.1903 7.98122 92.2248 7.98003 93.0639 8.4164ZM104.905 8.37264C105.8 8.82209 106.324 10.0965 106.324 11.8258C106.324 14.2417 105.42 15.4404 103.597 15.4404C101.893 15.4404 101.121 14.3047 101.121 11.7947C101.121 8.90033 102.848 7.33891 104.905 8.37264ZM37.9345 13.0224C38.0301 14.3575 37.5334 15.113 36.3498 15.4333C34.4449 15.9491 33.1314 14.6172 33.9776 13.0274C34.342 12.3428 35.5597 11.8715 36.7968 11.9364L37.861 11.9923L37.9345 13.0224ZM73.4202 12.0303C73.9294 12.1673 73.9682 12.2776 73.8573 13.2676C73.6981 14.6873 72.8834 15.4404 71.5068 15.4404C70.3442 15.4404 69.6686 14.912 69.6686 14.0031C69.6686 12.5563 71.6005 11.5404 73.4202 12.0303ZM109.413 15.1886C108.828 15.7765 108.795 16.3365 109.303 17.0651C109.855 17.857 111.256 17.7101 111.756 16.8078C112.081 16.2207 112.081 16.087 111.756 15.4999C111.281 14.6426 110.11 14.4871 109.413 15.1886ZM111.415 15.4476C111.759 15.8295 111.803 16.0652 111.624 16.575C111.248 17.6497 109.529 17.5933 109.256 16.4972C108.942 15.2397 110.532 14.4666 111.415 15.4476ZM109.899 16.3322C109.914 16.8228 109.975 17.0368 110.034 16.8078C110.168 16.2956 110.49 16.2713 110.759 16.7534C110.901 17.0095 110.967 16.8706 110.984 16.2778C111.004 15.5458 110.936 15.4404 110.439 15.4404C109.936 15.4404 109.875 15.5417 109.899 16.3322ZM110.699 15.9161C110.619 16.0468 110.453 16.1539 110.331 16.1539C110.208 16.1539 110.108 16.0468 110.108 15.9161C110.108 15.7853 110.274 15.6782 110.477 15.6782C110.679 15.6782 110.78 15.7853 110.699 15.9161Z" fill="#6E6E6E"/>
</svg>
